<svg xmlns="http://www.w3.org/2000/svg" viewBox="0 0 1280 1080" font-family="monospace" font-size="13">
  <defs>
    <marker id="arrow" markerWidth="8" markerHeight="6" refX="8" refY="3" orient="auto">
      <path d="M0,0 L8,3 L0,6 Z" fill="#555"/>
    </marker>
    <marker id="arrow-blue" markerWidth="8" markerHeight="6" refX="8" refY="3" orient="auto">
      <path d="M0,0 L8,3 L0,6 Z" fill="#2563eb"/>
    </marker>
    <marker id="arrow-orange" markerWidth="8" markerHeight="6" refX="8" refY="3" orient="auto">
      <path d="M0,0 L8,3 L0,6 Z" fill="#ea580c"/>
    </marker>
    <marker id="arrow-green" markerWidth="8" markerHeight="6" refX="8" refY="3" orient="auto">
      <path d="M0,0 L8,3 L0,6 Z" fill="#16a34a"/>
    </marker>
    <marker id="arrow-red" markerWidth="8" markerHeight="6" refX="8" refY="3" orient="auto">
      <path d="M0,0 L8,3 L0,6 Z" fill="#dc2626"/>
    </marker>
    <marker id="arrow-purple" markerWidth="8" markerHeight="6" refX="8" refY="3" orient="auto">
      <path d="M0,0 L8,3 L0,6 Z" fill="#7c3aed"/>
    </marker>
  </defs>

  <!-- Background -->
  <rect width="1280" height="1080" fill="#f8fafc" rx="8"/>

  <!-- Title -->
  <text x="640" y="32" text-anchor="middle" font-size="18" font-weight="bold" fill="#1e293b">Core Distribution — Module Block Diagram (Current / Stable)</text>
  <text x="640" y="52" text-anchor="middle" font-size="12" fill="#64748b">RP2350 Dual-Core  ·  200 MHz overclock  ·  SPSC IC Ring  ·  No mutex</text>

  <!-- ================================================================== -->
  <!-- Core 1 Box -->
  <!-- ================================================================== -->
  <rect x="30" y="70" width="560" height="620" rx="10" fill="#eff6ff" stroke="#2563eb" stroke-width="2"/>
  <rect x="30" y="70" width="560" height="36" rx="10" fill="#2563eb"/>
  <rect x="30" y="96" width="560" height="10" fill="#2563eb"/>
  <text x="310" y="93" text-anchor="middle" font-size="15" font-weight="bold" fill="white">Core 1  —  Network / Transport / Forwarding</text>
  <text x="310" y="122" text-anchor="middle" font-size="11" fill="#3b82f6">Stack: 4 KB  (SCRATCH_X 0x20080000)   ·   sleep_us(500) per loop</text>

  <!-- cyw43_arch_poll -->
  <rect x="55" y="145" width="150" height="50" rx="6" fill="#dbeafe" stroke="#3b82f6" stroke-width="1.5"/>
  <text x="130" y="166" text-anchor="middle" font-size="12" font-weight="bold" fill="#1e40af">cyw43_arch_poll</text>
  <text x="130" y="181" text-anchor="middle" font-size="10" fill="#3b82f6">WiFi housekeeping</text>

  <!-- HTTP/TLS -->
  <rect x="230" y="145" width="160" height="50" rx="6" fill="#dbeafe" stroke="#3b82f6" stroke-width="1.5"/>
  <text x="310" y="166" text-anchor="middle" font-size="12" font-weight="bold" fill="#1e40af">HTTP / TLS</text>
  <text x="310" y="181" text-anchor="middle" font-size="10" fill="#3b82f6">recv_cb · chunked decode</text>

  <!-- g_https_resp -->
  <rect x="230" y="215" width="160" height="40" rx="6" fill="#bfdbfe" stroke="#3b82f6" stroke-width="1.5"/>
  <text x="310" y="233" text-anchor="middle" font-size="11" font-weight="bold" fill="#1e40af">g_https_resp</text>
  <text x="310" y="247" text-anchor="middle" font-size="10" fill="#3b82f6">response buffer</text>
  <line x1="310" y1="195" x2="310" y2="215" stroke="#3b82f6" stroke-width="1.5" marker-end="url(#arrow-blue)"/>

  <!-- tts_forward_pump -->
  <rect x="55" y="280" width="520" height="120" rx="6" fill="#e0f2fe" stroke="#2563eb" stroke-width="2"/>
  <text x="315" y="300" text-anchor="middle" font-size="13" font-weight="bold" fill="#1e40af">tts_forward_pump()   (src/tts.c)</text>

  <!-- Opus sub-box -->
  <rect x="70" y="310" width="240" height="78" rx="4" fill="#fef3c7" stroke="#d97706" stroke-width="1"/>
  <text x="190" y="328" text-anchor="middle" font-size="11" font-weight="bold" fill="#92400e">Opus path</text>
  <text x="190" y="344" text-anchor="middle" font-size="10" fill="#78350f">extract [u16 BE len][L bytes]</text>
  <text x="190" y="360" text-anchor="middle" font-size="10" fill="#78350f">→ IC_MSG_TTS_OPUS_PKT</text>
  <text x="190" y="376" text-anchor="middle" font-size="10" fill="#78350f">raw opus pkt  ~40-60 B/frame</text>

  <!-- PCM sub-box -->
  <rect x="325" y="310" width="240" height="78" rx="4" fill="#dcfce7" stroke="#16a34a" stroke-width="1"/>
  <text x="445" y="328" text-anchor="middle" font-size="11" font-weight="bold" fill="#166534">Raw PCM path</text>
  <text x="445" y="344" text-anchor="middle" font-size="10" fill="#14532d">copy chunk (≤1024 B)</text>
  <text x="445" y="360" text-anchor="middle" font-size="10" fill="#14532d">→ IC_MSG_TTS_PCM_CHUNK</text>
  <text x="445" y="376" text-anchor="middle" font-size="10" fill="#14532d">int16-LE mono samples</text>

  <line x1="310" y1="255" x2="310" y2="280" stroke="#3b82f6" stroke-width="1.5" marker-end="url(#arrow-blue)"/>

  <!-- handle_core1_notify -->
  <rect x="55" y="425" width="520" height="160" rx="6" fill="#dbeafe" stroke="#3b82f6" stroke-width="1.5"/>
  <text x="315" y="445" text-anchor="middle" font-size="12" font-weight="bold" fill="#1e40af">handle_core1_notify()   (main.c)</text>
  <text x="80" y="468" font-size="11" fill="#1e3a5f">AUDIO_READY  → CORE1_S_RUNNING transition</text>
  <text x="80" y="486" font-size="11" fill="#1e3a5f">BTN_X        → g_core1_fetch_pending = true</text>
  <text x="80" y="504" font-size="11" fill="#1e3a5f">TIMELINE_*   → operator_id capture / active flag</text>
  <text x="80" y="522" font-size="11" fill="#1e3a5f">RADIO_START  → radio_pending + operator_id</text>
  <text x="80" y="540" font-size="11" fill="#1e3a5f">RADIO_STOP   → http_cleanup() + HC_IDLE</text>
  <text x="80" y="558" font-size="11" fill="#1e3a5f">TTS_PLAYED   → g_tts_play_active=false, queue pop</text>
  <text x="80" y="576" font-size="11" fill="#7c3aed" font-weight="bold">LP_OPUS_PKT  → lp_accum_append() (accumulate)</text>

  <!-- Linephone POST block (NEW) -->
  <rect x="55" y="600" width="520" height="78" rx="6" fill="#ede9fe" stroke="#7c3aed" stroke-width="2"/>
  <text x="315" y="620" text-anchor="middle" font-size="13" font-weight="bold" fill="#5b21b6">Linephone POST   (src/linephone.c)</text>
  <text x="315" y="638" text-anchor="middle" font-size="10" fill="#6d28d9">LP_POST_END → base64(accum) → POST /api/device/linephone/</text>
  <text x="315" y="654" text-anchor="middle" font-size="10" fill="#6d28d9">LP_START/STOP → enter/leave linephone mode</text>
  <text x="315" y="670" text-anchor="middle" font-size="10" fill="#6d28d9">LP_GET → poll for queued speech (200 opus / 404 idle)</text>

  <!-- ================================================================== -->
  <!-- Core 0 Box -->
  <!-- ================================================================== -->
  <rect x="690" y="70" width="560" height="700" rx="10" fill="#fef2f2" stroke="#dc2626" stroke-width="2"/>
  <rect x="690" y="70" width="560" height="36" rx="10" fill="#dc2626"/>
  <rect x="690" y="96" width="560" height="10" fill="#dc2626"/>
  <text x="970" y="93" text-anchor="middle" font-size="15" font-weight="bold" fill="white">Core 0  —  Audio / UI / Opus Decode + MIC Capture</text>
  <text x="970" y="122" text-anchor="middle" font-size="11" fill="#ef4444">Stack: 16 KB  (Main RAM top)   ·   sleep_us(1000) per loop</text>

  <!-- LCD / Buttons -->
  <rect x="715" y="145" width="150" height="50" rx="6" fill="#fee2e2" stroke="#ef4444" stroke-width="1.5"/>
  <text x="790" y="166" text-anchor="middle" font-size="12" font-weight="bold" fill="#991b1b">LCD / Buttons</text>
  <text x="790" y="181" text-anchor="middle" font-size="10" fill="#dc2626">GUI render · poll</text>

  <!-- handle_core0_notify -->
  <rect x="715" y="215" width="520" height="200" rx="6" fill="#fee2e2" stroke="#dc2626" stroke-width="2"/>
  <text x="975" y="237" text-anchor="middle" font-size="13" font-weight="bold" fill="#991b1b">handle_core0_notify()   (main.c)</text>

  <!-- Opus decode block -->
  <rect x="730" y="250" width="250" height="95" rx="4" fill="#fef3c7" stroke="#d97706" stroke-width="1.5"/>
  <text x="855" y="270" text-anchor="middle" font-size="11" font-weight="bold" fill="#92400e">IC_MSG_TTS_OPUS_PKT (0x33)</text>
  <text x="855" y="288" text-anchor="middle" font-size="10" fill="#78350f">opus_stream_decode_frame()</text>
  <text x="855" y="304" text-anchor="middle" font-size="10" fill="#78350f">SILK VLA ~3 KB on stack</text>
  <text x="855" y="320" text-anchor="middle" font-size="10" fill="#78350f">static pcm[480] → 960 B decoded</text>
  <text x="855" y="336" text-anchor="middle" font-size="10" fill="#78350f">→ audio_stream_write_mono16()</text>

  <!-- PCM pending block -->
  <rect x="995" y="250" width="225" height="75" rx="4" fill="#dcfce7" stroke="#16a34a" stroke-width="1.5"/>
  <text x="1108" y="270" text-anchor="middle" font-size="11" font-weight="bold" fill="#166534">IC_MSG_TTS_PCM_CHUNK (0x31)</text>
  <text x="1108" y="288" text-anchor="middle" font-size="10" fill="#14532d">memcpy → pcm_pending[]</text>
  <text x="1108" y="304" text-anchor="middle" font-size="10" fill="#14532d">staging buffer  8 KB cap</text>
  <text x="1108" y="316" text-anchor="middle" font-size="10" fill="#14532d">drained by tts_play_pump()</text>

  <!-- TTS_END -->
  <rect x="995" y="335" width="225" height="30" rx="4" fill="#f1f5f9" stroke="#94a3b8" stroke-width="1"/>
  <text x="1108" y="355" text-anchor="middle" font-size="11" fill="#475569">IC_MSG_TTS_END → stream_done flag</text>

  <!-- NET_READY -->
  <rect x="730" y="375" width="225" height="28" rx="4" fill="#f1f5f9" stroke="#94a3b8" stroke-width="1"/>
  <text x="843" y="394" text-anchor="middle" font-size="11" fill="#475569">IC_MSG_NET_READY → BEEP_PLAY state</text>

  <!-- tts_play_pump -->
  <rect x="715" y="435" width="250" height="55" rx="6" fill="#fce7f3" stroke="#db2777" stroke-width="1.5"/>
  <text x="840" y="455" text-anchor="middle" font-size="12" font-weight="bold" fill="#9d174d">tts_play_pump()</text>
  <text x="840" y="472" text-anchor="middle" font-size="10" fill="#be185d">pcm_pending → audio ring drain</text>
  <text x="840" y="484" text-anchor="middle" font-size="10" fill="#be185d">underrun recover · silence pad</text>

  <!-- Audio Ring -->
  <rect x="715" y="510" width="250" height="55" rx="6" fill="#fef3c7" stroke="#d97706" stroke-width="2"/>
  <text x="840" y="530" text-anchor="middle" font-size="12" font-weight="bold" fill="#92400e">Audio Ring (DMA)</text>
  <text x="840" y="546" text-anchor="middle" font-size="10" fill="#92400e">32 KB · 4096 frames · ENDLESS</text>
  <text x="840" y="558" text-anchor="middle" font-size="10" fill="#92400e">~170 ms @24kHz · ~256 ms @16kHz</text>

  <!-- I2S DAC -->
  <rect x="770" y="580" width="140" height="30" rx="15" fill="#7c3aed" stroke="none"/>
  <text x="840" y="600" text-anchor="middle" font-size="12" font-weight="bold" fill="white">PIO I2S → DAC</text>

  <!-- ======== MIC Capture Path (NEW) ======== -->
  <rect x="990" y="435" width="230" height="175" rx="6" fill="#f5f3ff" stroke="#7c3aed" stroke-width="2"/>
  <text x="1105" y="455" text-anchor="middle" font-size="13" font-weight="bold" fill="#5b21b6">MIC Capture  (src/mic.c)</text>

  <!-- INMP441 -->
  <rect x="1030" y="465" width="150" height="28" rx="14" fill="#7c3aed" stroke="none"/>
  <text x="1105" y="484" text-anchor="middle" font-size="11" font-weight="bold" fill="white">INMP441 → PIO0</text>

  <!-- I2S IN -->
  <rect x="1005" y="500" width="200" height="28" rx="4" fill="#ede9fe" stroke="#8b5cf6" stroke-width="1"/>
  <text x="1105" y="519" text-anchor="middle" font-size="10" fill="#5b21b6">I2S IN (i2s_in.pio) · DMA ring 4 KB</text>

  <!-- PCM accumulator -->
  <rect x="1005" y="535" width="200" height="28" rx="4" fill="#ede9fe" stroke="#8b5cf6" stroke-width="1"/>
  <text x="1105" y="554" text-anchor="middle" font-size="10" fill="#5b21b6">pcm_acc[320] · 20 ms frame</text>

  <!-- Opus encode -->
  <rect x="1005" y="570" width="200" height="28" rx="4" fill="#fef3c7" stroke="#d97706" stroke-width="1.5"/>
  <text x="1105" y="589" text-anchor="middle" font-size="10" font-weight="bold" fill="#92400e">opus_encode 8 kbps CBR</text>

  <!-- MIC internal arrows -->
  <line x1="1105" y1="493" x2="1105" y2="500" stroke="#7c3aed" stroke-width="1.5" marker-end="url(#arrow-purple)"/>
  <line x1="1105" y1="528" x2="1105" y2="535" stroke="#7c3aed" stroke-width="1.5" marker-end="url(#arrow-purple)"/>
  <line x1="1105" y1="563" x2="1105" y2="570" stroke="#7c3aed" stroke-width="1.5" marker-end="url(#arrow-purple)"/>

  <!-- MIC label: mic_pump() -->
  <text x="1105" y="425" text-anchor="middle" font-size="10" fill="#7c3aed">mic_pump() per core0 tick</text>

  <!-- Core0 internal arrows -->
  <line x1="840" y1="490" x2="840" y2="510" stroke="#db2777" stroke-width="1.5" marker-end="url(#arrow)"/>
  <line x1="840" y1="565" x2="840" y2="580" stroke="#d97706" stroke-width="1.5" marker-end="url(#arrow)"/>
  <!-- opus decode → audio ring (direct) -->
  <path d="M 855 345 L 855 360 Q 855 370 845 370 L 780 370 Q 770 370 770 380 L 770 510" stroke="#d97706" stroke-width="1.5" stroke-dasharray="4,3" fill="none" marker-end="url(#arrow-orange)"/>
  <text x="760" y="440" text-anchor="end" font-size="9" fill="#d97706">direct write</text>

  <!-- MIC opus → IC ring arrow (core0 → core1) -->
  <path d="M 1005 584 L 960 584 Q 950 584 950 594 L 950 640 Q 950 660 930 680 L 760 870" stroke="#7c3aed" stroke-width="2" stroke-dasharray="6,3" fill="none" marker-end="url(#arrow-purple)"/>
  <text x="930" y="650" font-size="9" fill="#7c3aed">IC_MSG_LINEPHONE_OPUS_PKT</text>

  <!-- ================================================================== -->
  <!-- IC Ring (center bridge) -->
  <!-- ================================================================== -->
  <rect x="540" y="800" width="200" height="270" rx="8" fill="#f0fdf4" stroke="#16a34a" stroke-width="2"/>
  <text x="640" y="822" text-anchor="middle" font-size="13" font-weight="bold" fill="#166534">IC Ring Bus</text>
  <text x="640" y="838" text-anchor="middle" font-size="10" fill="#16a34a">64 KB total · SPSC per dir</text>
  <text x="640" y="852" text-anchor="middle" font-size="10" fill="#16a34a">HW FIFO notify (8 slots)</text>

  <!-- Core1 → Core0 messages -->
  <rect x="555" y="862" width="170" height="85" rx="4" fill="#dcfce7" stroke="#16a34a" stroke-width="1"/>
  <text x="640" y="877" text-anchor="middle" font-size="10" font-weight="bold" fill="#166534">Core1 → Core0</text>
  <text x="565" y="893" font-size="10" fill="#14532d">0x10 NET_READY</text>
  <text x="565" y="907" font-size="10" fill="#14532d">0x30 LABS_READY</text>
  <text x="565" y="921" font-size="10" fill="#d97706" font-weight="bold">0x33 TTS_OPUS_PKT</text>
  <text x="565" y="935" font-size="10" fill="#16a34a" font-weight="bold">0x31 TTS_PCM_CHUNK</text>
  <text x="565" y="949" font-size="10" fill="#14532d">0x32 TTS_END</text>

  <!-- Core0 → Core1 messages -->
  <rect x="555" y="955" width="170" height="105" rx="4" fill="#dbeafe" stroke="#3b82f6" stroke-width="1"/>
  <text x="640" y="970" text-anchor="middle" font-size="10" font-weight="bold" fill="#1e40af">Core0 → Core1</text>
  <text x="565" y="986" font-size="10" fill="#1e3a5f">0x11 AUDIO_READY</text>
  <text x="565" y="1000" font-size="10" fill="#1e3a5f">0x20 BTN_X</text>
  <text x="565" y="1014" font-size="10" fill="#1e3a5f">0x22 TIMELINE_START/STOP</text>
  <text x="565" y="1028" font-size="10" fill="#1e3a5f">0x25 TTS_PLAYED</text>
  <text x="565" y="1042" font-size="10" fill="#1e3a5f">0x26 RADIO_START/STOP</text>
  <text x="565" y="1056" font-size="10" fill="#7c3aed" font-weight="bold">0x28 LP_OPUS_PKT  0x29 LP_POST_END</text>

  <!-- Arrows: Core1 → IC Ring -->
  <path d="M 310 585 L 310 610 Q 310 620 320 620 L 530 890 Q 540 892 545 895" stroke="#16a34a" stroke-width="2" fill="none" marker-end="url(#arrow-green)"/>

  <!-- Arrows: IC Ring → Core0 (opus) -->
  <path d="M 725 905 L 855 320" stroke="#d97706" stroke-width="2" fill="none" marker-end="url(#arrow-orange)" stroke-dasharray="6,3"/>
  <!-- Arrows: IC Ring → Core0 (pcm) -->
  <path d="M 725 930 L 1050 280" stroke="#16a34a" stroke-width="2" fill="none" marker-end="url(#arrow-green)" stroke-dasharray="6,3"/>

  <!-- Arrows: Core0 → IC Ring (control) -->
  <path d="M 840 610 Q 840 720 750 960 Q 740 980 725 990" stroke="#3b82f6" stroke-width="2" fill="none" marker-end="url(#arrow-blue)" stroke-dasharray="6,3"/>

  <!-- Arrows: IC Ring → Core1 (control) -->
  <path d="M 555 1000 L 315 560" stroke="#3b82f6" stroke-width="2" fill="none" marker-end="url(#arrow-blue)" stroke-dasharray="6,3"/>

  <!-- Arrows: IC Ring → Core1 (linephone opus from core0) -->
  <path d="M 555 1050 L 315 580" stroke="#7c3aed" stroke-width="2" fill="none" marker-end="url(#arrow-purple)" stroke-dasharray="6,3"/>

  <!-- ================================================================== -->
  <!-- Legend (bottom-right) -->
  <!-- ================================================================== -->
  <rect x="760" y="800" width="490" height="50" rx="8" fill="#fff" stroke="#e2e8f0" stroke-width="1"/>
  <text x="775" y="820" font-size="11" font-weight="bold" fill="#334155">Legend:</text>
  <line x1="830" y1="816" x2="860" y2="816" stroke="#d97706" stroke-width="2"/>
  <text x="865" y="820" font-size="10" fill="#78350f">TTS Opus</text>
  <line x1="930" y1="816" x2="960" y2="816" stroke="#16a34a" stroke-width="2"/>
  <text x="965" y="820" font-size="10" fill="#166534">TTS PCM</text>
  <line x1="1030" y1="816" x2="1060" y2="816" stroke="#3b82f6" stroke-width="2"/>
  <text x="1065" y="820" font-size="10" fill="#1e40af">Control</text>
  <line x1="1120" y1="816" x2="1150" y2="816" stroke="#7c3aed" stroke-width="2"/>
  <text x="1155" y="820" font-size="10" fill="#5b21b6">MIC/Linephone</text>
  <text x="775" y="840" font-size="10" fill="#64748b">Purple path = NEW MIC capture: INMP441 → I2S IN → opus_encode → IC Ring → Core1 → POST Cloud</text>

  <!-- ================================================================== -->
  <!-- Memory Layout -->
  <!-- ================================================================== -->
  <rect x="760" y="860" width="490" height="118" rx="8" fill="#f5f3ff" stroke="#7c3aed" stroke-width="1.5"/>
  <text x="1005" y="882" text-anchor="middle" font-size="13" font-weight="bold" fill="#5b21b6">Memory Layout</text>

  <!-- Main RAM -->
  <rect x="775" y="895" width="130" height="70" rx="4" fill="#ede9fe" stroke="#8b5cf6" stroke-width="1"/>
  <text x="840" y="912" text-anchor="middle" font-size="10" font-weight="bold" fill="#5b21b6">Main RAM 512 KB</text>
  <rect x="785" y="918" width="110" height="18" rx="2" fill="#dc2626" opacity="0.2" stroke="#dc2626" stroke-width="1"/>
  <text x="840" y="931" text-anchor="middle" font-size="9" font-weight="bold" fill="#dc2626">Core0 Stack 16 KB</text>
  <text x="840" y="948" text-anchor="middle" font-size="9" fill="#6d28d9">▲ heap · .bss · .data</text>
  <text x="840" y="960" text-anchor="middle" font-size="9" fill="#6d28d9">0x2000_0000</text>

  <!-- SCRATCH_X -->
  <rect x="920" y="895" width="130" height="70" rx="4" fill="#dbeafe" stroke="#3b82f6" stroke-width="1"/>
  <text x="985" y="912" text-anchor="middle" font-size="10" font-weight="bold" fill="#1e40af">SCRATCH_X 4 KB</text>
  <rect x="930" y="918" width="110" height="18" rx="2" fill="#3b82f6" opacity="0.2" stroke="#3b82f6" stroke-width="1"/>
  <text x="985" y="931" text-anchor="middle" font-size="9" font-weight="bold" fill="#1e40af">Core1 Stack 4 KB</text>
  <text x="985" y="948" text-anchor="middle" font-size="9" fill="#3b82f6">0x2008_0000</text>

  <!-- SCRATCH_Y -->
  <rect x="1065" y="895" width="130" height="70" rx="4" fill="#f1f5f9" stroke="#94a3b8" stroke-width="1"/>
  <text x="1130" y="912" text-anchor="middle" font-size="10" font-weight="bold" fill="#64748b">SCRATCH_Y 4 KB</text>
  <rect x="1075" y="918" width="110" height="18" rx="2" fill="#e2e8f0" stroke="#94a3b8" stroke-width="1"/>
  <text x="1130" y="931" text-anchor="middle" font-size="9" fill="#94a3b8">(未使用)</text>
  <text x="1130" y="948" text-anchor="middle" font-size="9" fill="#94a3b8">0x2008_1000</text>

  <!-- Opus decoder/encoder detail -->
  <rect x="760" y="990" width="490" height="80" rx="8" fill="#fefce8" stroke="#ca8a04" stroke-width="1.5"/>
  <text x="1005" y="1010" text-anchor="middle" font-size="13" font-weight="bold" fill="#854d0e">Opus Codec State  (Core0)</text>
  <text x="775" y="1030" font-size="10" fill="#713f12">Decode: opus_stream.c — SILK fixed-point, VLA ~3 KB, pcm[480] static (TTS playback)</text>
  <text x="775" y="1048" font-size="10" fill="#713f12">Encode: mic.c — 16 kHz mono VOIP, 8 kbps CBR, complexity 0, ~20 B/frame (MIC capture)</text>
  <text x="775" y="1066" font-size="10" fill="#713f12">Both run on Core0 — decode on IC_MSG_TTS_OPUS_PKT, encode on mic_pump() per tick</text>
</svg>
