<svg xmlns="http://www.w3.org/2000/svg" viewBox="0 0 1200 920" font-family="monospace" font-size="12">
  <defs>
    <marker id="dep" markerWidth="7" markerHeight="5" refX="7" refY="2.5" orient="auto">
      <path d="M0,0 L7,2.5 L0,5 Z" fill="#94a3b8"/>
    </marker>
    <marker id="dep-r" markerWidth="7" markerHeight="5" refX="7" refY="2.5" orient="auto">
      <path d="M0,0 L7,2.5 L0,5 Z" fill="#dc2626"/>
    </marker>
    <marker id="dep-b" markerWidth="7" markerHeight="5" refX="7" refY="2.5" orient="auto">
      <path d="M0,0 L7,2.5 L0,5 Z" fill="#2563eb"/>
    </marker>
    <marker id="dep-p" markerWidth="7" markerHeight="5" refX="7" refY="2.5" orient="auto">
      <path d="M0,0 L7,2.5 L0,5 Z" fill="#7c3aed"/>
    </marker>
    <marker id="dep-g" markerWidth="7" markerHeight="5" refX="7" refY="2.5" orient="auto">
      <path d="M0,0 L7,2.5 L0,5 Z" fill="#16a34a"/>
    </marker>
  </defs>

  <rect width="1200" height="920" fill="#f8fafc" rx="8"/>

  <!-- Title -->
  <text x="600" y="30" text-anchor="middle" font-size="18" font-weight="bold" fill="#1e293b">ito-denwa  —  Source Module Dependency Diagram</text>
  <text x="600" y="50" text-anchor="middle" font-size="11" fill="#64748b">RP2350 firmware  ·  per src/*.c module  ·  arrows = #include dependency</text>

  <!-- ================================================================== -->
  <!-- Layer: Application (main.c) -->
  <!-- ================================================================== -->
  <rect x="350" y="70" width="500" height="60" rx="8" fill="#fef2f2" stroke="#dc2626" stroke-width="2"/>
  <text x="600" y="96" text-anchor="middle" font-size="15" font-weight="bold" fill="#991b1b">main.c</text>
  <text x="600" y="116" text-anchor="middle" font-size="10" fill="#dc2626">Core0 loop · Core1 launch · state machine · handle_core{0,1}_notify</text>

  <!-- ================================================================== -->
  <!-- Layer: Feature Modules -->
  <!-- ================================================================== -->
  <text x="30" y="170" font-size="11" font-weight="bold" fill="#64748b">Feature Modules</text>
  <line x1="30" y1="175" x2="1170" y2="175" stroke="#e2e8f0" stroke-width="1"/>

  <!-- tts.c -->
  <rect x="30" y="190" width="200" height="75" rx="6" fill="#e0f2fe" stroke="#2563eb" stroke-width="1.5"/>
  <text x="130" y="212" text-anchor="middle" font-size="13" font-weight="bold" fill="#1e40af">tts.c</text>
  <text x="130" y="228" text-anchor="middle" font-size="9" fill="#3b82f6">TTS request build</text>
  <text x="130" y="240" text-anchor="middle" font-size="9" fill="#3b82f6">tts_forward_pump (core1)</text>
  <text x="130" y="252" text-anchor="middle" font-size="9" fill="#3b82f6">tts_play_pump (core0)</text>

  <!-- linephone.c -->
  <rect x="250" y="190" width="200" height="75" rx="6" fill="#ede9fe" stroke="#7c3aed" stroke-width="1.5"/>
  <text x="350" y="212" text-anchor="middle" font-size="13" font-weight="bold" fill="#5b21b6">linephone.c</text>
  <text x="350" y="228" text-anchor="middle" font-size="9" fill="#7c3aed">opus accum + base64</text>
  <text x="350" y="240" text-anchor="middle" font-size="9" fill="#7c3aed">lp_kick_post (core1)</text>
  <text x="350" y="252" text-anchor="middle" font-size="9" fill="#7c3aed">lp_kick_get  (core1)</text>

  <!-- mic.c -->
  <rect x="470" y="190" width="200" height="75" rx="6" fill="#f5f3ff" stroke="#7c3aed" stroke-width="1.5"/>
  <text x="570" y="212" text-anchor="middle" font-size="13" font-weight="bold" fill="#5b21b6">mic.c</text>
  <text x="570" y="228" text-anchor="middle" font-size="9" fill="#7c3aed">INMP441 I2S RX (PIO0)</text>
  <text x="570" y="240" text-anchor="middle" font-size="9" fill="#7c3aed">DMA ring → opus_encode</text>
  <text x="570" y="252" text-anchor="middle" font-size="9" fill="#7c3aed">mic_pump (core0)</text>

  <!-- gui.c -->
  <rect x="690" y="190" width="200" height="75" rx="6" fill="#fef3c7" stroke="#d97706" stroke-width="1.5"/>
  <text x="790" y="212" text-anchor="middle" font-size="13" font-weight="bold" fill="#92400e">gui.c</text>
  <text x="790" y="228" text-anchor="middle" font-size="9" fill="#b45309">LCD view render</text>
  <text x="790" y="240" text-anchor="middle" font-size="9" fill="#b45309">button poll + debounce</text>
  <text x="790" y="252" text-anchor="middle" font-size="9" fill="#b45309">set_status (thread-safe)</text>

  <!-- queue.c -->
  <rect x="910" y="190" width="200" height="75" rx="6" fill="#f1f5f9" stroke="#94a3b8" stroke-width="1.5"/>
  <text x="1010" y="212" text-anchor="middle" font-size="13" font-weight="bold" fill="#475569">queue.c</text>
  <text x="1010" y="228" text-anchor="middle" font-size="9" fill="#64748b">TTS text queue</text>
  <text x="1010" y="240" text-anchor="middle" font-size="9" fill="#64748b">push / pop / peek</text>
  <text x="1010" y="252" text-anchor="middle" font-size="9" fill="#64748b">MAX_QUEUE 8 entries</text>

  <!-- ================================================================== -->
  <!-- Layer: Codec / Audio -->
  <!-- ================================================================== -->
  <text x="30" y="310" font-size="11" font-weight="bold" fill="#64748b">Codec / Audio</text>
  <line x1="30" y1="315" x2="1170" y2="315" stroke="#e2e8f0" stroke-width="1"/>

  <!-- opus_stream.c -->
  <rect x="30" y="330" width="200" height="65" rx="6" fill="#fef3c7" stroke="#d97706" stroke-width="1.5"/>
  <text x="130" y="352" text-anchor="middle" font-size="13" font-weight="bold" fill="#92400e">opus_stream.c</text>
  <text x="130" y="368" text-anchor="middle" font-size="9" fill="#b45309">Opus decoder (SILK)</text>
  <text x="130" y="380" text-anchor="middle" font-size="9" fill="#b45309">rate switch · PLC reset</text>

  <!-- audio.c -->
  <rect x="250" y="330" width="200" height="65" rx="6" fill="#fce7f3" stroke="#db2777" stroke-width="1.5"/>
  <text x="350" y="352" text-anchor="middle" font-size="13" font-weight="bold" fill="#9d174d">audio.c</text>
  <text x="350" y="368" text-anchor="middle" font-size="9" fill="#be185d">I2S TX (PIO2) · DMA ring 32 KB</text>
  <text x="350" y="380" text-anchor="middle" font-size="9" fill="#be185d">stream_write · underrun recover</text>

  <!-- i2s.pio (TX) -->
  <rect x="470" y="330" width="130" height="65" rx="6" fill="#f5f3ff" stroke="#8b5cf6" stroke-width="1"/>
  <text x="535" y="352" text-anchor="middle" font-size="12" font-weight="bold" fill="#6d28d9">i2s.pio</text>
  <text x="535" y="368" text-anchor="middle" font-size="9" fill="#8b5cf6">I2S TX program</text>
  <text x="535" y="380" text-anchor="middle" font-size="9" fill="#8b5cf6">PIO2 (DAC output)</text>

  <!-- i2s_in.pio (RX) -->
  <rect x="620" y="330" width="130" height="65" rx="6" fill="#f5f3ff" stroke="#8b5cf6" stroke-width="1"/>
  <text x="685" y="352" text-anchor="middle" font-size="12" font-weight="bold" fill="#6d28d9">i2s_in.pio</text>
  <text x="685" y="368" text-anchor="middle" font-size="9" fill="#8b5cf6">I2S RX program</text>
  <text x="685" y="380" text-anchor="middle" font-size="9" fill="#8b5cf6">PIO0 (MIC input)</text>

  <!-- libopus (external) -->
  <rect x="770" y="330" width="130" height="65" rx="6" fill="#fff7ed" stroke="#ea580c" stroke-width="1" stroke-dasharray="4,2"/>
  <text x="835" y="352" text-anchor="middle" font-size="12" font-weight="bold" fill="#c2410c">libopus</text>
  <text x="835" y="368" text-anchor="middle" font-size="9" fill="#ea580c">SILK fixed-point</text>
  <text x="835" y="380" text-anchor="middle" font-size="9" fill="#ea580c">encode + decode</text>

  <!-- ================================================================== -->
  <!-- Layer: Network -->
  <!-- ================================================================== -->
  <text x="30" y="440" font-size="11" font-weight="bold" fill="#64748b">Network / Transport</text>
  <line x1="30" y1="445" x2="1170" y2="445" stroke="#e2e8f0" stroke-width="1"/>

  <!-- http.c -->
  <rect x="30" y="460" width="220" height="75" rx="6" fill="#dbeafe" stroke="#2563eb" stroke-width="1.5"/>
  <text x="140" y="482" text-anchor="middle" font-size="13" font-weight="bold" fill="#1e40af">http.c</text>
  <text x="140" y="498" text-anchor="middle" font-size="9" fill="#3b82f6">HTTPS/TLS client (altcp)</text>
  <text x="140" y="510" text-anchor="middle" font-size="9" fill="#3b82f6">recv_cb · chunked decode</text>
  <text x="140" y="522" text-anchor="middle" font-size="9" fill="#3b82f6">request builder · state machine</text>

  <!-- wifi.c -->
  <rect x="270" y="460" width="200" height="75" rx="6" fill="#dbeafe" stroke="#2563eb" stroke-width="1.5"/>
  <text x="370" y="482" text-anchor="middle" font-size="13" font-weight="bold" fill="#1e40af">wifi.c</text>
  <text x="370" y="498" text-anchor="middle" font-size="9" fill="#3b82f6">CYW43 WiFi init</text>
  <text x="370" y="510" text-anchor="middle" font-size="9" fill="#3b82f6">DNS resolve</text>
  <text x="370" y="522" text-anchor="middle" font-size="9" fill="#3b82f6">network_init (blocking)</text>

  <!-- lwIP / mbedTLS (external) -->
  <rect x="490" y="460" width="180" height="75" rx="6" fill="#fff7ed" stroke="#ea580c" stroke-width="1" stroke-dasharray="4,2"/>
  <text x="580" y="482" text-anchor="middle" font-size="12" font-weight="bold" fill="#c2410c">lwIP / mbedTLS</text>
  <text x="580" y="498" text-anchor="middle" font-size="9" fill="#ea580c">TCP/IP stack</text>
  <text x="580" y="510" text-anchor="middle" font-size="9" fill="#ea580c">altcp_tls (TLS 1.2)</text>
  <text x="580" y="522" text-anchor="middle" font-size="9" fill="#ea580c">DNS · DHCP</text>

  <!-- cJSON (external) -->
  <rect x="690" y="460" width="120" height="75" rx="6" fill="#fff7ed" stroke="#ea580c" stroke-width="1" stroke-dasharray="4,2"/>
  <text x="750" y="482" text-anchor="middle" font-size="12" font-weight="bold" fill="#c2410c">cJSON</text>
  <text x="750" y="498" text-anchor="middle" font-size="9" fill="#ea580c">JSON parse</text>
  <text x="750" y="510" text-anchor="middle" font-size="9" fill="#ea580c">lab list / timeline</text>

  <!-- ================================================================== -->
  <!-- Layer: IPC / Platform -->
  <!-- ================================================================== -->
  <text x="30" y="585" font-size="11" font-weight="bold" fill="#64748b">IPC / Platform</text>
  <line x1="30" y1="590" x2="1170" y2="590" stroke="#e2e8f0" stroke-width="1"/>

  <!-- ic_ring.c -->
  <rect x="30" y="605" width="200" height="65" rx="6" fill="#dcfce7" stroke="#16a34a" stroke-width="2"/>
  <text x="130" y="627" text-anchor="middle" font-size="13" font-weight="bold" fill="#166534">ic_ring.c</text>
  <text x="130" y="643" text-anchor="middle" font-size="9" fill="#16a34a">Inter-core SPSC ring 64 KB</text>
  <text x="130" y="655" text-anchor="middle" font-size="9" fill="#16a34a">HW FIFO notify · DMB barrier</text>

  <!-- common.h (header-only) -->
  <rect x="250" y="605" width="160" height="65" rx="6" fill="#f1f5f9" stroke="#94a3b8" stroke-width="1" stroke-dasharray="4,2"/>
  <text x="330" y="627" text-anchor="middle" font-size="13" font-weight="bold" fill="#475569">common.h</text>
  <text x="330" y="643" text-anchor="middle" font-size="9" fill="#64748b">board_millis()</text>
  <text x="330" y="655" text-anchor="middle" font-size="9" fill="#64748b">mem_barrier() · HALT()</text>

  <!-- led.c -->
  <rect x="430" y="605" width="130" height="65" rx="6" fill="#f1f5f9" stroke="#94a3b8" stroke-width="1.5"/>
  <text x="495" y="627" text-anchor="middle" font-size="13" font-weight="bold" fill="#475569">led.c</text>
  <text x="495" y="643" text-anchor="middle" font-size="9" fill="#64748b">CYW43 on-board LED</text>
  <text x="495" y="655" text-anchor="middle" font-size="9" fill="#64748b">heartbeat toggle</text>

  <!-- ================================================================== -->
  <!-- Layer: Display / HW -->
  <!-- ================================================================== -->
  <text x="30" y="720" font-size="11" font-weight="bold" fill="#64748b">Display / HW Drivers</text>
  <line x1="30" y1="725" x2="1170" y2="725" stroke="#e2e8f0" stroke-width="1"/>

  <!-- st7789.c -->
  <rect x="30" y="740" width="200" height="65" rx="6" fill="#fef3c7" stroke="#d97706" stroke-width="1.5"/>
  <text x="130" y="762" text-anchor="middle" font-size="13" font-weight="bold" fill="#92400e">st7789.c</text>
  <text x="130" y="778" text-anchor="middle" font-size="9" fill="#b45309">SPI LCD driver 240×240</text>
  <text x="130" y="790" text-anchor="middle" font-size="9" fill="#b45309">pixel/rect/char primitives</text>

  <!-- ================================================================== -->
  <!-- Layer: Provisioning / Storage -->
  <!-- ================================================================== -->
  <text x="30" y="850" font-size="11" font-weight="bold" fill="#64748b">Provisioning / Storage</text>
  <line x1="30" y1="855" x2="1170" y2="855" stroke="#e2e8f0" stroke-width="1"/>

  <!-- ble_provision.c -->
  <rect x="30" y="870" width="200" height="45" rx="6" fill="#f0fdfa" stroke="#0d9488" stroke-width="1.5"/>
  <text x="130" y="892" text-anchor="middle" font-size="13" font-weight="bold" fill="#0f766e">ble_provision.c</text>
  <text x="130" y="908" text-anchor="middle" font-size="9" fill="#0d9488">BLE GATT WiFi+API creds setup</text>

  <!-- credentials.c -->
  <rect x="250" y="870" width="200" height="45" rx="6" fill="#f0fdfa" stroke="#0d9488" stroke-width="1.5"/>
  <text x="350" y="892" text-anchor="middle" font-size="13" font-weight="bold" fill="#0f766e">credentials.c</text>
  <text x="350" y="908" text-anchor="middle" font-size="9" fill="#0d9488">Flash read/write WiFi creds</text>

  <!-- wifi_provision.gatt -->
  <rect x="470" y="870" width="200" height="45" rx="6" fill="#f0fdfa" stroke="#0d9488" stroke-width="1" stroke-dasharray="4,2"/>
  <text x="570" y="892" text-anchor="middle" font-size="13" font-weight="bold" fill="#0f766e">wifi_provision.gatt</text>
  <text x="570" y="908" text-anchor="middle" font-size="9" fill="#0d9488">BLE service definition</text>

  <!-- ================================================================== -->
  <!-- Dependency arrows (key relationships) -->
  <!-- ================================================================== -->

  <!-- main.c → feature modules -->
  <line x1="430" y1="130" x2="130" y2="190" stroke="#94a3b8" stroke-width="1.2" marker-end="url(#dep)"/>
  <line x1="490" y1="130" x2="350" y2="190" stroke="#94a3b8" stroke-width="1.2" marker-end="url(#dep)"/>
  <line x1="570" y1="130" x2="570" y2="190" stroke="#94a3b8" stroke-width="1.2" marker-end="url(#dep)"/>
  <line x1="680" y1="130" x2="790" y2="190" stroke="#94a3b8" stroke-width="1.2" marker-end="url(#dep)"/>
  <line x1="770" y1="130" x2="1010" y2="190" stroke="#94a3b8" stroke-width="1.2" marker-end="url(#dep)"/>

  <!-- main.c → codec/audio -->
  <path d="M 400 130 Q 250 280 130 330" stroke="#94a3b8" stroke-width="1" fill="none" marker-end="url(#dep)" stroke-dasharray="3,2"/>
  <path d="M 500 130 Q 400 280 350 330" stroke="#94a3b8" stroke-width="1" fill="none" marker-end="url(#dep)" stroke-dasharray="3,2"/>

  <!-- main.c → platform -->
  <path d="M 600 130 Q 300 400 130 605" stroke="#16a34a" stroke-width="1" fill="none" marker-end="url(#dep-g)" stroke-dasharray="3,2"/>

  <!-- tts.c → deps -->
  <line x1="130" y1="265" x2="130" y2="330" stroke="#d97706" stroke-width="1.2" marker-end="url(#dep)"/>
  <text x="140" y="300" font-size="8" fill="#b45309">opus_stream</text>
  <line x1="180" y1="265" x2="350" y2="330" stroke="#db2777" stroke-width="1.2" marker-end="url(#dep)"/>
  <text x="290" y="290" font-size="8" fill="#be185d">audio</text>
  <path d="M 100 265 Q 80 360 100 460" stroke="#2563eb" stroke-width="1.2" fill="none" marker-end="url(#dep-b)"/>
  <text x="70" y="370" font-size="8" fill="#2563eb">http</text>
  <path d="M 60 265 Q 40 420 100 605" stroke="#16a34a" stroke-width="1.2" fill="none" marker-end="url(#dep-g)"/>
  <text x="42" y="440" font-size="8" fill="#16a34a">ic_ring</text>

  <!-- linephone.c → deps -->
  <path d="M 300 265 Q 240 360 180 460" stroke="#2563eb" stroke-width="1.2" fill="none" marker-end="url(#dep-b)"/>
  <text x="225" y="365" font-size="8" fill="#2563eb">http</text>
  <line x1="390" y1="265" x2="390" y2="460" stroke="#2563eb" stroke-width="1.2" marker-end="url(#dep-b)" stroke-dasharray="3,2"/>

  <!-- mic.c → deps -->
  <path d="M 540 265 Q 500 300 685 345" stroke="#8b5cf6" stroke-width="1.2" fill="none" marker-end="url(#dep)"/>
  <text x="610" y="292" font-size="8" fill="#6d28d9">i2s_in.pio</text>
  <path d="M 600 265 Q 780 290 835 330" stroke="#ea580c" stroke-width="1.2" fill="none" marker-end="url(#dep)"/>
  <text x="740" y="282" font-size="8" fill="#c2410c">libopus (encode)</text>
  <path d="M 490 265 Q 300 430 170 605" stroke="#16a34a" stroke-width="1.2" fill="none" marker-end="url(#dep-g)"/>
  <text x="300" y="465" font-size="8" fill="#16a34a">ic_ring</text>

  <!-- gui.c → deps -->
  <line x1="790" y1="265" x2="130" y2="740" stroke="#94a3b8" stroke-width="1" stroke-dasharray="3,2" marker-end="url(#dep)"/>
  <path d="M 750 265 Q 400 430 160 605" stroke="#16a34a" stroke-width="1" fill="none" marker-end="url(#dep-g)" stroke-dasharray="3,2"/>

  <!-- http.c → deps -->
  <line x1="140" y1="535" x2="370" y2="460" stroke="#2563eb" stroke-width="1" marker-end="url(#dep-b)"/>
  <text x="260" y="492" font-size="8" fill="#2563eb">wifi</text>
  <line x1="250" y1="497" x2="490" y2="497" stroke="#ea580c" stroke-width="1" marker-end="url(#dep)" stroke-dasharray="3,2"/>
  <text x="380" y="492" font-size="8" fill="#c2410c">lwIP/mbedTLS</text>
  <line x1="250" y1="510" x2="690" y2="495" stroke="#ea580c" stroke-width="1" marker-end="url(#dep)" stroke-dasharray="3,2"/>
  <text x="500" y="505" font-size="8" fill="#c2410c">cJSON</text>
  <path d="M 80 535 Q 60 570 100 605" stroke="#16a34a" stroke-width="1.2" fill="none" marker-end="url(#dep-g)"/>
  <text x="60" y="570" font-size="8" fill="#16a34a">ic_ring</text>

  <!-- audio.c → i2s.pio -->
  <line x1="400" y1="395" x2="490" y2="362" stroke="#8b5cf6" stroke-width="1.2" marker-end="url(#dep)"/>
  <text x="460" y="370" font-size="8" fill="#6d28d9">i2s.pio</text>

  <!-- opus_stream.c → libopus -->
  <line x1="230" y1="362" x2="770" y2="362" stroke="#ea580c" stroke-width="1" marker-end="url(#dep)" stroke-dasharray="3,2"/>
  <text x="510" y="355" font-size="8" fill="#c2410c">libopus (decode)</text>

  <!-- ble_provision.c → deps -->
  <line x1="130" y1="870" x2="130" y2="805" stroke="#94a3b8" stroke-width="1" marker-end="url(#dep)" stroke-dasharray="3,2"/>
  <line x1="200" y1="870" x2="300" y2="870" stroke="#0d9488" stroke-width="1" marker-end="url(#dep)"/>

  <!-- ================================================================== -->
  <!-- Core affinity legend -->
  <!-- ================================================================== -->
  <rect x="830" y="600" width="340" height="110" rx="8" fill="#fff" stroke="#e2e8f0" stroke-width="1"/>
  <text x="1000" y="620" text-anchor="middle" font-size="12" font-weight="bold" fill="#334155">Core Affinity</text>

  <rect x="845" y="632" width="12" height="12" rx="2" fill="#dc2626" opacity="0.3" stroke="#dc2626" stroke-width="1"/>
  <text x="865" y="643" font-size="10" fill="#991b1b">Core 0: audio, mic, gui, opus_stream, tts_play_pump</text>

  <rect x="845" y="652" width="12" height="12" rx="2" fill="#2563eb" opacity="0.3" stroke="#2563eb" stroke-width="1"/>
  <text x="865" y="663" font-size="10" fill="#1e40af">Core 1: http, wifi, tts_forward_pump, linephone POST/GET</text>

  <rect x="845" y="672" width="12" height="12" rx="2" fill="#16a34a" opacity="0.3" stroke="#16a34a" stroke-width="1"/>
  <text x="865" y="683" font-size="10" fill="#166534">Shared: ic_ring (SPSC per direction, no mutex)</text>

  <rect x="845" y="692" width="12" height="12" rx="2" fill="#ea580c" opacity="0.3" stroke="#ea580c" stroke-width="1" stroke-dasharray="3,1"/>
  <text x="865" y="703" font-size="10" fill="#c2410c">External: libopus, lwIP, mbedTLS, cJSON, btstack</text>

  <!-- ================================================================== -->
  <!-- Data flow summary -->
  <!-- ================================================================== -->
  <rect x="830" y="730" width="340" height="80" rx="8" fill="#fefce8" stroke="#ca8a04" stroke-width="1"/>
  <text x="1000" y="748" text-anchor="middle" font-size="11" font-weight="bold" fill="#854d0e">Key Data Flows</text>
  <text x="845" y="766" font-size="9" fill="#713f12">TTS: http→tts→ic_ring→opus_stream→audio→DAC</text>
  <text x="845" y="782" font-size="9" fill="#713f12">MIC: INMP441→mic(PIO0+DMA)→opus→ic_ring→linephone→http</text>
  <text x="845" y="798" font-size="9" fill="#713f12">GUI: gui→st7789(SPI) + gui→ic_ring (btn events→core1)</text>
</svg>
